<?xml version="1.0" standalone="no"?>
<!DOCTYPE svg PUBLIC "-//W3C//DTD SVG 20010904//EN"
 "http://www.w3.org/TR/2001/REC-SVG-20010904/DTD/svg10.dtd">
<svg version="1.0" xmlns="http://www.w3.org/2000/svg"
 width="500.000000pt" height="500.000000pt" viewBox="0 0 500.000000 500.000000"
 preserveAspectRatio="xMidYMid meet">

<g transform="translate(0.000000,500.000000) scale(0.100000,-0.100000)"
fill="#000000" stroke="none">
<path d="M1670 3830 c0 -5 11 -10 25 -10 14 0 25 5 25 10 0 6 -11 10 -25 10
-14 0 -25 -4 -25 -10z"/>
<path d="M2610 3830 c0 -5 11 -10 25 -10 14 0 25 5 25 10 0 6 -11 10 -25 10
-14 0 -25 -4 -25 -10z"/>
<path d="M1521 3792 c-19 -9 -44 -30 -55 -45 -21 -28 -21 -40 -24 -610 -3
-569 1 -684 30 -778 8 -30 16 -39 33 -39 l21 0 -17 68 c-16 60 -18 129 -18
690 -1 687 -2 673 61 712 40 24 16 27 -31 2z"/>
<path d="M2455 3794 c-59 -30 -56 10 -55 -660 0 -531 -2 -628 -15 -679 -9 -33
-20 -64 -26 -70 -5 -5 -8 -65 -7 -135 l2 -125 6 115 c5 89 12 127 31 170 l24
55 5 625 c5 597 6 626 24 657 11 18 34 39 50 47 24 12 26 16 11 16 -11 0 -33
-7 -50 -16z"/>
<path d="M2950 2920 l0 -500 25 0 25 0 0 500 0 500 -25 0 -25 0 0 -500z"/>
<path d="M3451 3406 c67 -26 103 -49 156 -99 99 -94 143 -205 143 -364 0 -240
-110 -407 -328 -500 -44 -19 -49 -23 -22 -18 108 20 268 133 324 229 88 151
97 377 20 534 -51 104 -185 207 -294 226 l-35 6 36 -14z"/>
<path d="M3338 2413 c7 -3 16 -2 19 1 4 3 -2 6 -13 5 -11 0 -14 -3 -6 -6z"/>
<path d="M2950 2354 c0 -31 3 -35 23 -32 17 2 23 11 25 36 3 29 1 32 -22 32
-23 0 -26 -4 -26 -36z"/>
<path d="M2143 2300 c0 -36 2 -50 4 -32 2 17 2 47 0 65 -2 17 -4 3 -4 -33z"/>
<path d="M2681 2254 c0 -11 3 -14 6 -6 3 7 2 16 -1 19 -3 4 -6 -2 -5 -13z"/>
<path d="M2143 2170 c0 -36 2 -50 4 -32 2 17 2 47 0 65 -2 17 -4 3 -4 -33z"/>
<path d="M2592 2200 c0 -14 2 -19 5 -12 2 6 2 18 0 25 -3 6 -5 1 -5 -13z"/>
<path d="M2952 1947 c4 -132 29 -174 113 -192 l30 -7 -32 21 c-51 32 -63 67
-63 181 l0 100 -26 0 -26 0 4 -103z"/>
<path d="M416 1823 c-3 -10 -8 -36 -11 -58 -5 -30 -4 -36 4 -25 6 8 11 29 12
45 0 29 1 28 21 -15 l20 -45 18 40 18 40 7 -37 c4 -21 11 -38 15 -38 7 0 -3
60 -17 100 -3 10 -12 -1 -25 -30 l-20 -45 -13 38 c-16 48 -22 53 -29 30z"/>
<path d="M681 1788 c-12 -28 -19 -53 -16 -56 2 -3 7 3 11 12 8 20 53 21 60 1
4 -8 10 -15 14 -15 5 0 -2 25 -13 55 -12 30 -25 55 -28 55 -4 0 -16 -23 -28
-52z m33 -16 c-21 -5 -24 0 -17 27 l6 23 13 -23 c11 -20 10 -25 -2 -27z"/>
<path d="M901 1783 c1 -32 4 -45 6 -29 l5 28 30 -28 c26 -25 29 -26 19 -7 -9
17 -9 27 0 41 18 29 4 52 -31 52 l-30 0 1 -57z m59 28 c0 -20 -25 -35 -41 -25
-5 3 -9 14 -9 25 0 14 7 19 25 19 18 0 25 -5 25 -19z"/>
<path d="M1122 1785 c1 -33 3 -47 5 -32 l4 28 21 -26 c11 -14 23 -24 26 -21 3
3 -3 15 -13 26 -18 20 -18 22 -1 50 20 35 8 41 -13 8 l-15 -23 -7 25 c-5 17
-7 5 -7 -35z"/>
<path d="M1330 1785 l0 -55 38 2 c36 1 36 1 5 5 -24 3 -33 9 -33 23 0 14 9 20
33 23 l32 4 -32 1 c-25 2 -33 7 -33 21 0 15 8 21 33 24 31 4 31 4 -5 5 l-38 2
0 -55z"/>
<path d="M1570 1783 l5 -58 3 52 c2 39 7 53 20 56 11 3 8 5 -8 6 -24 1 -25 0
-20 -56z"/>
<path d="M1750 1785 c0 -30 5 -55 10 -55 6 0 10 25 10 55 0 30 -4 55 -10 55
-5 0 -10 -25 -10 -55z"/>
<path d="M1922 1785 c1 -47 2 -51 5 -20 l4 39 34 -39 34 -40 1 58 c0 31 -4 57
-10 57 -5 0 -10 -19 -10 -42 l0 -43 -16 30 c-8 17 -22 37 -30 45 -12 12 -14 7
-12 -45z"/>
<path d="M2155 1816 c-37 -57 43 -118 88 -68 19 21 22 32 7 32 -5 0 -10 -7
-10 -15 0 -20 -46 -30 -65 -15 -21 17 -19 67 3 79 9 6 11 11 5 11 -7 0 -20
-11 -28 -24z"/>
<path d="M2226 1826 c10 -8 21 -12 24 -10 5 6 -21 24 -34 24 -6 0 -1 -6 10
-14z"/>
<path d="M3200 1730 c0 -5 9 -10 20 -10 11 0 20 5 20 10 0 6 -9 10 -20 10 -11
0 -20 -4 -20 -10z"/>
</g>
</svg>
